<?xml version="1.0" encoding="utf-8"?>
<!-- Generator: Adobe Illustrator 22.1.0, SVG Export Plug-In . SVG Version: 6.00 Build 0)  -->
<svg version="1.1" id="Layer_1" xmlns="http://www.w3.org/2000/svg" xmlns:xlink="http://www.w3.org/1999/xlink" x="0px" y="0px"
	 viewBox="0 0 2519 661" style="enable-background:new 0 0 2519 661;" xml:space="preserve">
<style type="text/css">
	.st0{display:none;fill:#FFFFFF;}
	.st1{fill:#FFFFFF;stroke:#006693;stroke-width:4;stroke-miterlimit:10;}
	.st2{fill:#006693;stroke:#000000;stroke-miterlimit:10;}
	.st3{fill:#006693;}
</style>
<rect x="336.2" y="312.5" class="st0" width="2078.8" height="333"/>
<circle class="st1" cx="331.8" cy="326" r="319.5"/>
<path class="st2" d="M331.8,178.5c0,0,32,7,38-51c0,0,83,2,61,108h-22c0,0,5-49-14-48s-19,111-19,111h-44"/>
<path class="st2" d="M405.8,248.5c0,0,2,20-2,28c0,0,11-23,37,7C440.8,283.5,454.8,250.5,405.8,248.5z"/>
<path class="st2" d="M331.8,309.5h91c0,0,15-41,31,0h7v-49h18v49h9v-49h14v49h4v8h-4v47h-14v-47h-9v47h-18l-1-47h-6v13
	c0,0-27,7-35-12l-87-1"/>
<path class="st2" d="M331.8,339.5c0,0,26-8,29,46h-29"/>
<path class="st2" d="M331.8,395.5c0,0,24-14,78,19c0,0,12,0,17-69h26c0,0,10,96-34,139v30c0,0-33-97-77-18c0,0-2-3-3,59h-7"/>
<ellipse class="st2" cx="377.3" cy="555.2" rx="30.5" ry="67.7"/>
<polyline class="st2" points="346.8,555.5 346.8,622.5 407.8,622.5 407.8,555.5 "/>
<path class="st2" d="M331.8,178.5c0,0-32,7-38-51c0,0-83,2-61,108h22c0,0-5-49,14-48s19,111,19,111h44"/>
<path class="st2" d="M257.8,248.5c0,0-2,20,2,28c0,0-11-23-37,7C222.8,283.5,208.8,250.5,257.8,248.5z"/>
<path class="st2" d="M331.8,309.5h-91c0,0-15-41-31,0h-7v-49h-18v49h-9v-49h-14v49h-4v8h4v47h14v-47h9v47h18l1-47h6v13
	c0,0,27,7,35-12l87-1"/>
<path class="st2" d="M331.8,339.5c0,0-26-8-29,46h29"/>
<path class="st2" d="M331.8,395.5c0,0-24-14-78,19c0,0-12,0-17-69h-26c0,0-10,96,34,139v30c0,0,33-97,77-18c0,0,2-3,3,59h7"/>
<ellipse class="st2" cx="286.3" cy="555.2" rx="30.5" ry="67.7"/>
<polyline class="st2" points="316.8,555.5 316.8,622.5 255.8,622.5 255.8,555.5 "/>
<ellipse class="st2" cx="331.8" cy="127.5" rx="28.3" ry="42.4"/>
<g>
	<path class="st2" d="M675.4,494.1c1.6-15.7,2.7-28.3,3.4-37.8c0.9-14.1,1.8-33.4,2.7-58.1c0.8-24.6,1.3-41.2,1.3-49.7v-12.8
		c23.3,0.2,45,0.2,65,0.2c20.2,0,39.6-0.1,58.3-0.2c-1.2,17.8-1.9,29.4-1.9,34.9l-10.1-0.3l-8.1-0.1l-8.1-0.1H755
		c-2.6,0-10.3,0.1-23.1,0.2l-1,27l16.8,0.3h18.8c5.4,0,13.7-0.1,24.8-0.3c-0.9,14.6-1.3,26.1-1.3,34.4c-12.4-0.4-21.7-0.6-27.7-0.6
		c-10.2,0-21.3,0.2-33.4,0.6l-1.2,41.8l-0.1,15.5v5.1l-25-0.2C700.7,493.9,691.6,494,675.4,494.1z"/>
	<path class="st2" d="M819.3,494.1l3.6-51.5l1.2-29.6c0.1-5.3,0.1-10.8,0.1-16.4s-0.1-12.6-0.2-21c9.4,0.2,16.8,0.2,22.3,0.2
		c6.4,0,13.8-0.1,22.2-0.2l-0.5,13.1c3-3.4,5.5-5.9,7.4-7.6s4.1-3.2,6.6-4.5c2.5-1.4,5.1-2.4,7.8-3c2.7-0.7,5.5-1,8.5-1
		c2.8,0,5.9,0.4,9.3,1.2c0.1,8.4,0.3,15.4,0.6,20.9l0.8,17.9c-4.3-1.2-8.2-1.9-11.9-1.9c-4.6,0-8.6,0.7-12,2
		c-3.4,1.4-6.3,3.4-8.9,6.2c-2.6,2.7-4.7,6.2-6.2,10.3c-1.5,4.1-2.6,10.6-3.2,19.5c-0.6,8.9-0.9,19.1-0.9,30.5c0,4,0.2,9,0.5,15
		c-7.5-0.2-15.1-0.2-22.6-0.2C836,493.9,827.9,494,819.3,494.1z"/>
	<path class="st2" d="M932.5,409.4c1.5-7.7,2.4-12.9,2.8-15.8c0.4-2.9,1-7.4,1.9-13.6c22.3-4.9,41.4-7.3,57.4-7.3
		c9.1,0,17.5,1,25.1,3.1c7.6,2.1,13.5,5.4,17.8,9.9c4.3,4.6,6.4,11.1,6.4,19.6c0,4.3-0.6,14.1-1.7,29.2c-1.2,15.2-2,35-2.7,59.6
		c-7.6-0.2-15.1-0.2-22.6-0.2c-7.3,0-15,0.1-23.2,0.2c1.1-8.5,2.2-26.1,3.5-52.7c-2.9,1.4-5.2,2.4-6.9,3s-4.6,1.5-8.7,2.8
		c-4.2,1.2-7.4,2.3-9.8,3.1c-2.4,0.9-4.4,1.9-6.1,3.2c-1.7,1.3-3,2.7-3.7,4.1s-1.1,2.9-1.1,4.6c0,2.6,1,4.9,3.1,6.7s5.4,2.8,10,2.8
		c1.6,0,3.4-0.1,5.2-0.4c1.9-0.3,4.4-0.9,7.7-2c-2.2,6-4.9,14.7-8,26.1c-6.7,1.1-13,1.6-18.9,1.6c-9.6,0-17.6-1.3-24-4
		s-11.3-7-14.7-12.9c-3.4-6-5.2-11.9-5.2-17.9c0-3.6,0.6-7.2,1.9-10.7c1.3-3.5,3.3-6.9,6-10.2c2.7-3.3,5.9-6.2,9.5-8.5
		c3.6-2.4,8.6-4.6,14.9-6.7s14.3-4.1,24-5.9c4-0.8,7.7-1.6,11.1-2.5c3.4-0.9,5.8-1.7,7.2-2.3c1.4-0.7,2.6-1.4,3.5-2.3
		s1.5-1.8,1.9-2.8s0.6-2,0.6-3.1c0-2.9-1.2-5.2-3.7-6.8c-2.5-1.6-6.1-2.4-10.9-2.4C968.5,398.1,952,401.9,932.5,409.4z"/>
	<path class="st2" d="M1064.3,494.1c2.2-17.6,3.9-37,5.1-58.2s1.9-41.3,2.1-60.3c9.3,0.2,17.3,0.2,24.1,0.2c7.8,0,15.3-0.1,22.5-0.2
		l-1.2,15.8c2.6-2.9,4.8-5.1,6.6-6.8c1.9-1.7,4.2-3.3,6.9-4.9c2.7-1.6,5.7-2.9,8.8-3.9c3.1-1,6.5-1.8,10.2-2.4s7.5-0.9,11.5-0.9
		c5.6,0,11,0.6,16.3,1.8c5.3,1.2,9.7,2.9,13.3,5.1c3.6,2.2,6.5,5,8.9,8.2c2.4,3.3,4,6.8,4.8,10.6c0.8,3.8,1.2,7.7,1.2,11.7
		c0,2.9-0.3,9.3-0.9,19l-2,42c-0.4,8.3-0.6,15.9-0.6,23c-7.8-0.2-15.1-0.2-21.9-0.2c-9.2,0-17.6,0.1-25.2,0.2
		c0.7-7,1.4-17.5,2.2-31.4c0.8-13.9,1.2-23.7,1.2-29.3c0-8.7-1.7-14.8-5.1-18.3c-3.4-3.4-7.6-5.2-12.7-5.2c-4.5,0-8.7,1.5-12.7,4.4
		s-7.1,7.2-9.2,12.8c-2.2,5.6-3.7,14.8-4.6,27.7c-0.9,12.8-1.5,25.9-1.8,39.2c-7.7-0.2-15.3-0.2-22.6-0.2
		C1081.8,493.9,1073.4,494,1064.3,494.1z"/>
	<path class="st2" d="M1325.9,457.1c-0.4,3.1-1.3,8.8-2.8,17.1l-3,18.6c-12.1,2.9-24,4.4-35.6,4.4c-8.4,0-15.8-0.9-22.2-2.6
		c-7.5-2-14.2-5.6-20.2-10.7c-6.1-5.3-10.6-11.5-13.3-18.7c-3.3-8.4-5-17.9-5-28.3c0-9.6,1.6-18.8,4.9-27.7c3.2-8.9,8-16.2,14.4-22
		c6.3-5.8,13.4-9.6,21.1-11.6s16.3-3,25.6-3c5.5,0,11,0.3,16.6,0.9s12.5,1.8,20.7,3.8l0.2,2.7c0.2,2.8,0.4,5.6,0.5,8.5
		s0.4,7.5,0.8,13.8l0.7,10.3c-11.1-3.9-20.9-5.8-29.4-5.8c-6.1,0-11.5,1.2-16.1,3.5c-4.6,2.4-8,5.8-10.2,10.2
		c-2.2,4.5-3.3,9.6-3.3,15.5c0,6,1,10.9,3,15c2,4,5.1,7,9.5,9.1c4.3,2,9.1,3,14.3,3c2.6,0,5.7-0.3,9.3-0.8c3.6-0.5,6.7-1.1,9.4-1.8
		C1318.4,459.7,1321.8,458.6,1325.9,457.1z"/>
	<path class="st2" d="M1346.7,494.1c1.1-9.9,1.8-17.9,2.3-24.1c0.6-8.4,1.2-19,1.8-31.7l1.3-27.5c0.5-12.5,0.9-24.4,1.2-35.7
		c0.3-13.6,0.5-26.7,0.5-39.3c10.8,0.2,19,0.2,24.4,0.2c6.3,0,13.7-0.1,22.3-0.2c-1.8,20.3-3.4,45.5-4.9,75.5
		c-1.5,30.1-2.2,57.7-2.2,82.9c-9-0.2-16.5-0.2-22.7-0.2C1363.4,493.9,1355.5,494,1346.7,494.1z M1397.8,427.4l20-28.7l15-23.1
		c10.7,0.2,18.8,0.2,24.3,0.2c7.6,0,16.6-0.1,26.9-0.2l-23.1,30c-5.4,6.9-10.9,14.3-16.6,22.3c5.4,10,18.5,32.1,39.1,66.2
		c-9.1-0.2-17.2-0.2-24.5-0.2c-7.4,0-15.9,0.1-25.5,0.2l-7.2-14.5c-2.6-5-4.8-9.3-6.6-12.7c-0.7-1.4-6-10.9-15.9-28.5L1397.8,427.4z
		"/>
	<path class="st2" d="M1544.1,335.7l-15.6,25.5c-1.9,3.3-5.7,9.8-11.4,19.7l-11-0.2c-1.1,0-4.8,0.1-11.1,0.2l14.6-45.3l15.7,0.2
		C1526.9,335.9,1533.2,335.9,1544.1,335.7z"/>
	<path class="st2" d="M1553.1,491.9c-0.3-3.4-0.6-7-0.9-10.7c-0.3-3.8-0.8-8.9-1.5-15.5l-0.9-8.4c7.5,2.9,13.9,5.1,19.3,6.6
		c5.4,1.4,10.4,2.1,14.9,2.1c3.8,0,6.8-0.3,9.2-1c2.4-0.7,4.1-1.7,5.2-3s1.6-2.7,1.6-4.1c0-1.2-0.4-2.5-1.2-3.7
		c-0.8-1.2-2.6-2.8-5.5-4.9c-6.3-4.6-11.9-8.9-16.7-12.6c-4.8-3.8-8.4-7.2-10.9-10.1c-2.4-2.9-4.3-6.1-5.6-9.5
		c-1.3-3.4-1.9-6.9-1.9-10.6c0-6.4,1.8-12.4,5.5-18s9.1-9.6,16.2-12.1c7.2-2.5,15.9-3.8,26.2-3.8c10.8,0,24.5,1.4,41.2,4.2l1.9,32.5
		c-9.4-3.7-18.4-5.6-27-5.6c-6.1,0-10.5,0.6-13.3,1.9c-2.7,1.3-4.1,3.2-4.1,5.8c0,0.9,0.2,1.7,0.5,2.4c0.3,0.8,0.9,1.6,1.7,2.4
		c0.8,0.9,1.8,1.7,3,2.6s4.1,3,8.8,6.2c4.6,3.2,8.3,5.9,10.9,8c4.3,3.4,7.6,6.6,9.9,9.5s4,6,5.2,9.3s1.8,6.8,1.8,10.4
		c0,5.5-1.3,10.5-4,15.1s-6.7,8.5-12.1,11.5c-5.4,3.1-11.2,5.2-17.5,6.4c-6.3,1.2-12.7,1.8-19.4,1.8c-4.5,0-10.1-0.4-16.9-1.2
		C1570,495.2,1562.1,493.8,1553.1,491.9z"/>
	<path class="st2" d="M1822.8,401.7c10.6,0.2,20.7,0.2,30.3,0.2c16.4,0,29.2-0.1,38.5-0.2c-1,10.6-2,25.6-3.1,45
		c-1,19.4-1.7,34.1-1.9,44c-8.9,1.6-16.3,2.8-22.1,3.5c-5.8,0.7-12.9,1.4-21.1,2s-15.5,0.9-21.9,0.9c-10.5,0-20.9-0.9-31-2.6
		s-19.2-4.4-27.2-8.2c-8-3.8-14.7-8.9-20-15.4s-9.5-14.2-12.4-23.1s-4.4-18.1-4.4-27.6c0-15.7,3.9-30.3,11.7-43.8
		c7.8-13.5,19-24.1,33.7-32s33.6-11.8,56.8-11.8c16.9,0,35.7,2.1,56.3,6.2c0,11.3,0.5,23.9,1.5,37.7c-5.6-1.9-10.1-3.3-13.5-4.2
		c-3.4-1-7.5-1.9-12.1-2.7c-4.6-0.8-9-1.4-13.1-1.8s-7.8-0.6-11.1-0.6c-8.5,0-16.6,1.2-24.1,3.7c-7.6,2.4-14.1,6.2-19.6,11.3
		c-5.5,5.1-9.5,11.1-12.2,18.2c-2.7,7-4.1,14.5-4.1,22.3c0,8,1.5,15.1,4.6,21.3c3.1,6.2,8,11,14.7,14.2s14.2,4.9,22.5,4.9
		c6.9,0,14.4-1,22.6-3l1.3-25.2c-5-0.2-8-0.3-9-0.3l-12.3,0.1l0.8-14.3c0.1-1.5,0.2-3.8,0.3-6.7
		C1822.7,410.7,1822.8,406.8,1822.8,401.7z"/>
	<path class="st2" d="M1904,547.1c-2.4-18.5-4-30-4.9-34.5c4.9,2.3,9.2,3.9,12.9,4.8c3.8,0.8,7,1.3,9.7,1.3c2.9,0,5.6-0.4,8.1-1.2
		s4.5-1.7,6-2.8s3.1-2.8,4.8-5.2c1.7-2.3,3-4.3,3.9-6s1.7-4,2.6-7.1l-21.8-66l-18.7-54.8c11.5,0.2,19.6,0.2,24.3,0.2
		c5.4,0,12.8-0.1,22.2-0.2c1.5,6,4.2,16.2,8.2,30.9c4,14.6,6.9,26.1,8.7,34.3c1,4.6,2,10.4,2.9,17.4l2.4-9.3
		c0.8-2.5,1.7-5.3,2.7-8.5s2.3-7,3.8-11.4l7.5-21.1l12.5-32.4c9.7,0.2,17,0.2,21.9,0.2c4.3,0,12.1-0.1,23.2-0.2l-22.4,50.6L1984,520
		c-2.6,5.3-5.1,9.4-7.5,12.5c-2.2,2.8-4.7,5.2-7.3,7.3c-2.5,1.9-5.1,3.6-8,4.9c-3.9,1.8-8.1,3.2-12.8,4.2
		c-5.1,1.1-10.3,1.6-15.6,1.6c-2.4,0-5.6-0.2-9.5-0.5c-4-0.3-7.1-0.7-9.6-1C1911.3,548.7,1908.1,548.1,1904,547.1z"/>
	<path class="st2" d="M2054.6,494.1l3.2-55.9l1.9-43.8l0.2-18.8c8.5,0.2,16,0.2,22.5,0.2c7.4,0,14.5-0.1,21.5-0.2l-0.8,15.4
		c2.4-3.1,4.4-5.5,6.1-7.1c1.7-1.7,3.7-3.2,6.1-4.8c2.4-1.5,4.9-2.7,7.4-3.6c2.6-0.9,5.4-1.6,8.6-2.1c3.2-0.5,6.5-0.8,10-0.8
		c3.9,0,7.6,0.3,10.9,1c3.3,0.7,6.2,1.5,8.6,2.5c2.4,1,4.5,2.2,6.3,3.5s3.3,2.8,4.7,4.5s2.9,4.1,4.7,7.3c3.4-5,7-8.7,10.8-11.3
		c3.8-2.6,8.1-4.4,12.9-5.6c4.8-1.2,9.8-1.8,14.9-1.8c6.7,0,13.1,1,19,2.9c6,1.9,10.9,5.3,14.7,10c3.8,4.8,5.7,10.9,5.7,18.5
		c0,3.6-0.3,8.9-0.8,16.1s-1.2,19.6-2.1,37.1s-1.4,29.8-1.5,36.8c-7.1-0.2-14-0.2-20.6-0.2c-8.1,0-16.6,0.1-25.5,0.2
		c0.8-9.8,1.6-22.1,2.4-37c0.8-14.8,1.2-25.1,1.2-30.8c0-5-0.6-8.8-1.7-11.2s-2.7-4.2-4.5-5.1s-3.8-1.4-6-1.4c-2.3,0-4.3,0.4-6,1.3
		c-1.9,0.9-3.5,2.4-4.9,4.3c-1.9,2.6-3.4,5.8-4.5,9.7c-0.9,3-1.7,7.7-2.2,13.9c-0.5,6.3-1,14.7-1.3,25.1l-0.9,31.1
		c-8.3-0.2-15.7-0.2-22.4-0.2c-6.8,0-14.8,0.1-24,0.2c0.7-6.9,1.5-18.5,2.5-34.7c0.9-16.2,1.4-27.1,1.4-32.6c0-4.6-0.5-8.1-1.4-10.4
		s-2.2-4.2-3.9-5.6s-3.9-2.1-6.7-2.1c-3,0-5.6,0.9-7.9,2.7c-2.2,1.8-4.2,4.3-5.7,7.7c-1.6,3.3-2.7,7.9-3.4,13.8
		c-0.7,5.8-1.3,14.8-1.8,26.8s-0.9,23.5-1,34.6c-9.4-0.2-17-0.2-22.8-0.2C2072.1,493.9,2064.1,494,2054.6,494.1z"/>
</g>
<g>
	<path class="st2" d="M686.5,621c1.9-18.6,3-39,3.4-61.3l-24.4,0.6l0.3-6.4c0.2-3.4,0.3-7.1,0.3-11.2c10.8,0.1,23.5,0.1,37.9,0.1
		l14.1-0.1H732l7.4-0.1l-0.3,5.6c-0.2,3-0.3,5.5-0.3,7.5c-0.1,2-0.1,3.5-0.1,4.5c-8.2-0.4-14.9-0.6-20.2-0.6h-4
		c-0.6,6.7-1,13-1.3,18.7c-0.4,8.2-0.8,16.2-1,23.9s-0.3,14-0.3,18.7c-6.3-0.1-10.3-0.1-12.1-0.1C698,620.9,693.7,620.9,686.5,621z"
		/>
	<path class="st2" d="M742.5,621c0.6-5.7,1.1-10.4,1.3-14c0.5-7.7,1.1-16.6,1.7-26.8c0.3-6.7,0.6-13.2,0.8-19.4s0.3-12.2,0.3-18
		c4.8,0.1,8.8,0.1,11.9,0.1c4.1,0,8,0,11.7-0.1l-1.2,13.9c-0.2,2.3-0.5,6.9-0.9,13.9c1.3-1.6,2.3-2.8,3.1-3.6s1.7-1.5,2.7-2.2
		s2-1.2,3-1.7s2.2-0.9,3.5-1.2s2.8-0.6,4.4-0.8c1.6-0.2,3.2-0.3,4.9-0.3c3.2,0,6.4,0.4,9.4,1.1s5.6,2,7.8,3.8
		c2.1,1.8,3.6,3.8,4.4,6.1s1.1,4.7,1.1,7.4c0,1,0,2.4-0.1,4.1c-0.1,1.7-0.2,3.8-0.4,6.4l-1.3,19.3c-0.2,2.4-0.2,4.4-0.3,6
		c0,1.6,0,3.6,0,6c-4-0.1-7.8-0.1-11.4-0.1c-4.1,0-8.2,0-12.4,0.1c0.6-5.1,1.2-10.9,1.7-17.6s0.7-11.6,0.7-14.8
		c0-3.6-0.8-6.1-2.3-7.6s-3.5-2.2-6-2.2c-2.2,0-4.2,0.5-5.9,1.4c-1.5,0.8-2.9,2-4,3.7c-1,1.4-1.8,3.5-2.5,6.1
		c-0.8,3.2-1.4,8-1.8,14.4c-0.2,3.5-0.4,9-0.7,16.5c-3.9-0.1-7.5-0.1-10.8-0.1C751.4,620.9,747.3,620.9,742.5,621z"/>
	<path class="st2" d="M879.5,603.7c-0.5,2.3-1.5,7.8-2.9,16.6c-4.4,0.9-8.2,1.5-11.2,1.7c-3,0.3-6.1,0.4-9.2,0.4
		c-4.5,0-8.7-0.3-12.5-0.9c-3.8-0.6-7.1-1.7-9.9-3.3c-2.8-1.6-5.1-3.6-7-6s-3.3-5.2-4.3-8.5s-1.5-6.7-1.5-10.1c0-4.9,1-9.7,2.9-14.3
		c1.9-4.7,4.5-8.3,7.5-11c3.1-2.6,6.6-4.5,10.6-5.6s8.1-1.7,12.3-1.7c4.4,0,8.5,0.5,12.5,1.5s7.3,2.8,10.1,5.3s4.7,5.4,5.9,8.5
		c1.2,3.2,1.7,6.6,1.7,10.3c0,2.2-0.2,4.6-0.7,7.3l-40.2,0.1c0,0.6-0.1,1.2-0.1,1.7c0,4.1,1.5,7.1,4.4,9.1c2.9,1.9,6.5,2.9,10.8,2.9
		c2.5,0,5.4-0.3,8.6-0.9C870.7,606.1,874.7,605.1,879.5,603.7z M844.2,585.2h18.9c0-0.6,0.1-1.2,0.1-1.7c0-2-0.4-3.7-1.1-5.1
		c-0.7-1.4-1.7-2.4-3-3.1c-1.3-0.6-2.8-1-4.4-1c-1.1,0-2.3,0.2-3.3,0.5c-1.1,0.4-2,0.9-2.9,1.6c-0.9,0.7-1.6,1.5-2.1,2.4
		c-0.6,0.9-1,1.8-1.3,2.7C844.8,582.5,844.5,583.7,844.2,585.2z"/>
	<path class="st2" d="M919.8,647.8c0.7-7.8,1.3-15.6,1.8-23.4c0.9-13.3,1.5-24.5,1.8-33.5s0.5-18,0.5-26.8c7.8-1.2,13.8-2,18.2-2.4
		s8.8-0.6,13.2-0.6c5.5,0,10.6,0.6,15.2,1.7s8.3,3.2,11.1,6.1c2.8,2.9,4.9,6.4,6.3,10.4c1.4,4,2.1,8.2,2.1,12.6
		c0,4-0.6,7.9-1.7,11.7s-2.9,7.2-5.3,10.2c-2.4,3-5.1,5.3-8.2,6.7s-6.5,2.2-10.3,2.2c-1.9,0-3.8-0.2-5.8-0.5c-2-0.4-3.9-0.9-5.7-1.6
		s-3.3-1.4-4.5-2.1s-2.7-1.7-4.5-3.1l-0.6,16c-0.3,7.3-0.4,12.9-0.4,16.6c-4.4-0.1-8.2-0.1-11.4-0.1
		C929,647.7,925,647.8,919.8,647.8z M946.2,578.6c-0.3,1.7-0.5,3.1-0.6,4.2c-0.1,1.1-0.2,2.6-0.3,4.4c-0.1,1.9-0.2,3.3-0.2,4.4
		c0,3.1,0.5,5.8,1.5,7.9c1,2.1,2.3,3.8,4.1,4.9c1.7,1.2,3.6,1.7,5.6,1.7c2.1,0,4-0.6,5.8-1.8s3.2-3,4.2-5.4s1.5-5.1,1.5-8.1
		c0-4.1-1.1-7.4-3.2-9.9c-2.2-2.5-5.3-3.7-9.4-3.7C952.4,577.3,949.5,577.8,946.2,578.6z"/>
	<path class="st2" d="M998.4,621l1-12.3l2.2-42.8l0.6-23c5.3,0.1,9.3,0.1,12,0.1c3.5,0,7.3,0,11.5-0.1l-1.3,17.6l-2.1,43.3L1022,621
		c-4.1,0-7.8-0.1-11.1-0.1L998.4,621z"/>
	<path class="st2" d="M1040.3,579.2c0.7-3.8,1.2-6.4,1.4-7.8c0.2-1.4,0.5-3.7,0.9-6.7c11-2.4,20.5-3.6,28.4-3.6
		c4.5,0,8.6,0.5,12.4,1.5s6.7,2.6,8.8,4.9c2.1,2.3,3.2,5.5,3.2,9.7c0,2.1-0.3,7-0.9,14.4c-0.6,7.5-1,17.3-1.3,29.4
		c-3.7-0.1-7.5-0.1-11.2-0.1c-3.6,0-7.4,0-11.5,0.1c0.5-4.2,1.1-12.9,1.7-26c-1.4,0.7-2.6,1.2-3.4,1.5s-2.3,0.8-4.3,1.4
		c-2.1,0.6-3.7,1.1-4.8,1.5c-1.2,0.4-2.2,1-3,1.6c-0.9,0.7-1.5,1.3-1.8,2c-0.4,0.7-0.5,1.5-0.5,2.3c0,1.3,0.5,2.4,1.5,3.3
		c1,0.9,2.7,1.4,4.9,1.4c0.8,0,1.7-0.1,2.6-0.2c0.9-0.1,2.2-0.5,3.8-1c-1.1,2.9-2.4,7.2-4,12.9c-3.3,0.5-6.4,0.8-9.3,0.8
		c-4.7,0-8.7-0.7-11.8-2c-3.2-1.3-5.6-3.4-7.3-6.4c-1.7-2.9-2.5-5.9-2.5-8.8c0-1.8,0.3-3.6,0.9-5.3s1.6-3.4,2.9-5s2.9-3,4.7-4.2
		c1.8-1.2,4.2-2.3,7.4-3.3c3.1-1,7.1-2,11.8-2.9c2-0.4,3.8-0.8,5.5-1.2s2.8-0.8,3.6-1.1c0.7-0.3,1.3-0.7,1.7-1.1
		c0.4-0.4,0.8-0.9,0.9-1.4c0.2-0.5,0.3-1,0.3-1.5c0-1.5-0.6-2.6-1.8-3.4c-1.2-0.8-3-1.2-5.4-1.2
		C1058,573.7,1049.9,575.5,1040.3,579.2z"/>
	<path class="st2" d="M1154.7,602.8c-0.2,1.5-0.6,4.3-1.4,8.4l-1.5,9.2c-6,1.5-11.9,2.2-17.6,2.2c-4.2,0-7.8-0.4-10.9-1.3
		c-3.7-1-7-2.8-10-5.3c-3-2.6-5.2-5.7-6.6-9.2c-1.6-4.2-2.5-8.8-2.5-14c0-4.7,0.8-9.3,2.4-13.7s4-8,7.1-10.9
		c3.1-2.8,6.6-4.8,10.4-5.7c3.8-1,8-1.5,12.7-1.5c2.7,0,5.4,0.1,8.2,0.4c2.8,0.3,6.1,0.9,10.2,1.9l0.1,1.3c0.1,1.4,0.2,2.8,0.3,4.2
		c0.1,1.4,0.2,3.7,0.4,6.8l0.3,5.1c-5.5-1.9-10.3-2.9-14.5-2.9c-3,0-5.7,0.6-7.9,1.7c-2.3,1.2-4,2.8-5,5c-1.1,2.2-1.6,4.7-1.6,7.6
		c0,2.9,0.5,5.4,1.5,7.4s2.5,3.5,4.7,4.5s4.5,1.5,7,1.5c1.3,0,2.8-0.1,4.6-0.4c1.8-0.3,3.3-0.6,4.6-0.9
		C1151,604.1,1152.7,603.5,1154.7,602.8z"/>
	<path class="st2" d="M1222,603.7c-0.5,2.3-1.5,7.8-2.9,16.6c-4.4,0.9-8.2,1.5-11.2,1.7c-3,0.3-6.1,0.4-9.2,0.4
		c-4.5,0-8.7-0.3-12.5-0.9c-3.8-0.6-7.1-1.7-9.9-3.3s-5.1-3.6-7-6s-3.3-5.2-4.3-8.5s-1.5-6.7-1.5-10.1c0-4.9,1-9.7,2.9-14.3
		c1.9-4.7,4.5-8.3,7.5-11c3.1-2.6,6.6-4.5,10.6-5.6s8.1-1.7,12.3-1.7c4.4,0,8.5,0.5,12.5,1.5s7.3,2.8,10.1,5.3
		c2.8,2.5,4.7,5.4,5.9,8.5c1.2,3.2,1.7,6.6,1.7,10.3c0,2.2-0.2,4.6-0.7,7.3l-40.2,0.1c0,0.6-0.1,1.2-0.1,1.7c0,4.1,1.5,7.1,4.4,9.1
		c2.9,1.9,6.5,2.9,10.8,2.9c2.5,0,5.4-0.3,8.6-0.9C1213.2,606.1,1217.2,605.1,1222,603.7z M1186.7,585.2h18.9c0-0.6,0.1-1.2,0.1-1.7
		c0-2-0.4-3.7-1.1-5.1c-0.7-1.4-1.7-2.4-3-3.1c-1.3-0.6-2.8-1-4.4-1c-1.1,0-2.3,0.2-3.3,0.5c-1.1,0.4-2,0.9-2.9,1.6
		c-0.9,0.7-1.6,1.5-2.1,2.4c-0.6,0.9-1,1.8-1.3,2.7C1187.3,582.5,1187,583.7,1186.7,585.2z"/>
	<path class="st2" d="M1306.6,604.2c-0.7,3.2-1.3,6.3-1.8,9.4l-1.3,7c-3.8,0.8-6.7,1.4-8.9,1.6c-2.1,0.2-4.2,0.3-6.2,0.3
		c-3.2,0-6.1-0.3-8.7-0.8c-2.5-0.6-4.6-1.6-6.3-3c-1.7-1.5-2.8-3.2-3.4-5.1c-0.6-1.9-0.9-3.9-0.9-6.1c0-0.4,0-1.1,0.1-2
		c0-1,0.2-3.1,0.4-6.5l1.3-19.8h-8.9c0.2-2.6,0.4-6.1,0.5-10.4l0.2-5.3h9.5c0.2-1.8,0.5-5.6,0.9-11.5l9.8-2
		c1.8-0.3,5.6-1.2,11.5-2.6c-0.3,5-0.5,10.4-0.6,16.2h13.1c-0.3,7.9-0.5,13.2-0.5,15.8h-13.2l-0.7,14.3c-0.1,2.1-0.1,3.5-0.1,4.1
		c0,1.8,0.2,3.4,0.6,4.6c0.4,1.2,1.1,2.1,2.1,2.6s2.1,0.8,3.4,0.8c0.9,0,1.9-0.1,2.9-0.2C1302.4,605.3,1304.1,604.9,1306.6,604.2z"
		/>
	<path class="st2" d="M1348,561c4.7,0,9.3,0.7,13.7,2.2c4.4,1.5,8.1,3.5,11.1,6.3c3,2.7,5.2,5.9,6.7,9.6c1.4,3.6,2.1,7.6,2.1,11.8
		c0,4.1-0.6,8-1.9,11.7s-3.4,7.1-6.5,10.4c-3.1,3.2-6.9,5.6-11.7,7.2c-4.7,1.6-9.7,2.4-15,2.4c-4.9,0-9.5-0.7-14-2.1
		c-4.5-1.4-8.2-3.5-11.2-6.2s-5.3-6-6.8-9.7c-1.5-3.8-2.3-7.8-2.3-11.9c0-4.2,0.7-8.1,2.2-11.9c1.5-3.8,3.8-7.2,7-10.2
		s7.1-5.3,11.8-7C1338.1,561.9,1343,561,1348,561z M1347.6,577.9c-2.4,0-4.6,0.6-6.5,1.9c-1.9,1.3-3.4,3.1-4.3,5.5
		c-1,2.4-1.5,5.1-1.5,7.9c0,4.2,1,7.4,3.2,9.7c2.1,2.2,4.7,3.4,7.9,3.4c2.4,0,4.6-0.6,6.5-1.9c1.9-1.3,3.4-3.2,4.3-5.7
		c1-2.5,1.5-5.2,1.5-8c0-2.4-0.4-4.5-1.1-6.4c-0.8-1.9-2-3.4-3.8-4.6C1352,578.5,1350,577.9,1347.6,577.9z"/>
	<path class="st2" d="M1419.6,621l1.6-27.6l0.9-21.6l0.1-9.3c4.2,0.1,7.9,0.1,11.1,0.1c3.6,0,7.2,0,10.6-0.1l-0.4,7.6
		c1.2-1.5,2.2-2.7,3-3.5s1.8-1.6,3-2.3s2.4-1.3,3.7-1.8c1.3-0.4,2.7-0.8,4.2-1.1c1.6-0.3,3.2-0.4,4.9-0.4c1.9,0,3.7,0.2,5.4,0.5
		c1.6,0.3,3.1,0.7,4.2,1.2c1.2,0.5,2.2,1.1,3.1,1.7s1.7,1.4,2.3,2.2c0.7,0.8,1.4,2,2.3,3.6c1.7-2.4,3.5-4.3,5.3-5.6
		c1.9-1.3,4-2.2,6.4-2.8s4.8-0.9,7.4-0.9c3.3,0,6.5,0.5,9.4,1.4c2.9,1,5.4,2.6,7.2,5s2.8,5.4,2.8,9.1c0,1.8-0.1,4.4-0.4,8
		s-0.6,9.7-1,18.3c-0.4,8.7-0.7,14.7-0.7,18.2c-3.5-0.1-6.9-0.1-10.2-0.1c-4,0-8.2,0-12.6,0.1c0.4-4.8,0.8-10.9,1.2-18.2
		c0.4-7.3,0.6-12.4,0.6-15.2c0-2.5-0.3-4.3-0.9-5.5s-1.3-2.1-2.2-2.5c-0.9-0.4-1.9-0.7-3-0.7s-2.1,0.2-3,0.6
		c-0.9,0.5-1.7,1.2-2.4,2.1c-0.9,1.3-1.7,2.9-2.2,4.8c-0.5,1.5-0.8,3.8-1.1,6.9c-0.3,3.1-0.5,7.3-0.6,12.4l-0.5,15.4
		c-4.1-0.1-7.8-0.1-11-0.1c-3.4,0-7.3,0-11.8,0.1c0.3-3.4,0.8-9.1,1.2-17.1c0.5-8,0.7-13.4,0.7-16.1c0-2.3-0.2-4-0.7-5.2
		c-0.5-1.1-1.1-2.1-1.9-2.7s-1.9-1-3.3-1c-1.5,0-2.8,0.4-3.9,1.3c-1.1,0.9-2.1,2.1-2.8,3.8c-0.8,1.6-1.3,3.9-1.7,6.8
		c-0.3,2.9-0.6,7.3-0.9,13.2s-0.4,11.6-0.5,17.1c-4.6-0.1-8.4-0.1-11.2-0.1C1428.2,620.9,1424.3,620.9,1419.6,621z"/>
	<path class="st2" d="M1585.5,603.7c-0.5,2.3-1.5,7.8-2.9,16.6c-4.4,0.9-8.2,1.5-11.2,1.7c-3,0.3-6.1,0.4-9.2,0.4
		c-4.5,0-8.7-0.3-12.5-0.9c-3.8-0.6-7.1-1.7-9.9-3.3s-5.1-3.6-7-6s-3.3-5.2-4.3-8.5s-1.5-6.7-1.5-10.1c0-4.9,1-9.7,2.9-14.3
		c1.9-4.7,4.5-8.3,7.5-11c3.1-2.6,6.6-4.5,10.6-5.6s8.1-1.7,12.3-1.7c4.4,0,8.5,0.5,12.5,1.5s7.3,2.8,10.1,5.3
		c2.8,2.5,4.7,5.4,5.9,8.5c1.2,3.2,1.7,6.6,1.7,10.3c0,2.2-0.2,4.6-0.7,7.3l-40.2,0.1c0,0.6-0.1,1.2-0.1,1.7c0,4.1,1.5,7.1,4.4,9.1
		c2.9,1.9,6.5,2.9,10.8,2.9c2.5,0,5.4-0.3,8.6-0.9C1576.8,606.1,1580.8,605.1,1585.5,603.7z M1550.3,585.2h18.9
		c0-0.6,0.1-1.2,0.1-1.7c0-2-0.4-3.7-1.1-5.1c-0.7-1.4-1.7-2.4-3-3.1c-1.3-0.6-2.8-1-4.4-1c-1.1,0-2.3,0.2-3.3,0.5
		c-1.1,0.4-2,0.9-2.9,1.6c-0.9,0.7-1.6,1.5-2.1,2.4c-0.6,0.9-1,1.8-1.3,2.7C1550.8,582.5,1550.5,583.7,1550.3,585.2z"/>
	<path class="st2" d="M1654.9,603.7c-0.5,2.3-1.5,7.8-2.9,16.6c-4.4,0.9-8.2,1.5-11.2,1.7c-3,0.3-6.1,0.4-9.2,0.4
		c-4.5,0-8.7-0.3-12.5-0.9c-3.8-0.6-7.1-1.7-9.9-3.3s-5.1-3.6-7-6s-3.3-5.2-4.3-8.5s-1.5-6.7-1.5-10.1c0-4.9,1-9.7,2.9-14.3
		c1.9-4.7,4.5-8.3,7.5-11c3.1-2.6,6.6-4.5,10.6-5.6s8.1-1.7,12.3-1.7c4.4,0,8.5,0.5,12.5,1.5s7.3,2.8,10.1,5.3
		c2.8,2.5,4.7,5.4,5.9,8.5c1.2,3.2,1.7,6.6,1.7,10.3c0,2.2-0.2,4.6-0.7,7.3L1619,594c0,0.6-0.1,1.2-0.1,1.7c0,4.1,1.5,7.1,4.4,9.1
		c2.9,1.9,6.5,2.9,10.8,2.9c2.5,0,5.4-0.3,8.6-0.9C1646.2,606.1,1650.2,605.1,1654.9,603.7z M1619.7,585.2h18.9
		c0-0.6,0.1-1.2,0.1-1.7c0-2-0.4-3.7-1.1-5.1c-0.7-1.4-1.7-2.4-3-3.1c-1.3-0.6-2.8-1-4.4-1c-1.1,0-2.3,0.2-3.3,0.5
		c-1.1,0.4-2,0.9-2.9,1.6c-0.9,0.7-1.6,1.5-2.1,2.4c-0.6,0.9-1,1.8-1.3,2.7C1620.2,582.5,1620,583.7,1619.7,585.2z"/>
	<path class="st2" d="M1710.3,604.2c-0.7,3.2-1.3,6.3-1.8,9.4l-1.3,7c-3.8,0.8-6.7,1.4-8.9,1.6c-2.1,0.2-4.2,0.3-6.2,0.3
		c-3.2,0-6.1-0.3-8.7-0.8c-2.5-0.6-4.6-1.6-6.3-3c-1.7-1.5-2.8-3.2-3.4-5.1c-0.6-1.9-0.9-3.9-0.9-6.1c0-0.4,0-1.1,0.1-2
		c0-1,0.2-3.1,0.4-6.5l1.3-19.8h-8.9c0.2-2.6,0.4-6.1,0.5-10.4l0.2-5.3h9.5c0.2-1.8,0.5-5.6,0.9-11.5l9.8-2
		c1.8-0.3,5.6-1.2,11.5-2.6c-0.3,5-0.5,10.4-0.6,16.2h13.1c-0.3,7.9-0.5,13.2-0.5,15.8h-13.2l-0.7,14.3c-0.1,2.1-0.1,3.5-0.1,4.1
		c0,1.8,0.2,3.4,0.6,4.6c0.4,1.2,1.1,2.1,2.1,2.6s2.1,0.8,3.4,0.8c0.9,0,1.9-0.1,2.9-0.2C1706,605.3,1707.7,604.9,1710.3,604.2z"/>
	<path class="st2" d="M1742.2,647.2c-1.2-9.1-2-14.8-2.4-17c2.4,1.1,4.5,1.9,6.4,2.3c1.9,0.4,3.4,0.6,4.8,0.6s2.7-0.2,4-0.6
		c1.2-0.4,2.2-0.8,3-1.4c0.7-0.6,1.5-1.4,2.4-2.5s1.5-2.1,1.9-3c0.4-0.8,0.8-2,1.3-3.5l-10.8-32.6l-9.2-27c5.7,0.1,9.7,0.1,12,0.1
		c2.7,0,6.3,0,11-0.1c0.7,2.9,2.1,8,4,15.2c2,7.2,3.4,12.9,4.3,17c0.5,2.3,1,5.1,1.4,8.6l1.2-4.6c0.4-1.2,0.8-2.6,1.3-4.2
		c0.5-1.6,1.1-3.4,1.9-5.6l3.7-10.4l6.2-16c4.8,0.1,8.4,0.1,10.8,0.1c2.1,0,6,0,11.4-0.1l-11,25l-20,46.3c-1.3,2.6-2.5,4.7-3.7,6.2
		c-1.1,1.4-2.3,2.6-3.6,3.6c-1.2,1-2.5,1.8-4,2.4c-1.9,0.9-4,1.6-6.3,2.1c-2.5,0.5-5.1,0.8-7.7,0.8c-1.2,0-2.8-0.1-4.7-0.3
		s-3.5-0.3-4.7-0.5S1744.2,647.7,1742.2,647.2z"/>
	<path class="st2" d="M1850.4,561c4.7,0,9.3,0.7,13.7,2.2c4.4,1.5,8.1,3.5,11.1,6.3c3,2.7,5.2,5.9,6.7,9.6c1.4,3.6,2.1,7.6,2.1,11.8
		c0,4.1-0.6,8-1.9,11.7s-3.4,7.1-6.5,10.4c-3.1,3.2-6.9,5.6-11.7,7.2c-4.7,1.6-9.7,2.4-15,2.4c-4.9,0-9.5-0.7-14-2.1
		c-4.5-1.4-8.2-3.5-11.2-6.2s-5.3-6-6.8-9.7c-1.5-3.8-2.3-7.8-2.3-11.9c0-4.2,0.7-8.1,2.2-11.9c1.5-3.8,3.8-7.2,7-10.2
		s7.1-5.3,11.8-7C1840.4,561.9,1845.3,561,1850.4,561z M1850,577.9c-2.4,0-4.6,0.6-6.5,1.9c-1.9,1.3-3.4,3.1-4.3,5.5
		c-1,2.4-1.5,5.1-1.5,7.9c0,4.2,1,7.4,3.2,9.7c2.1,2.2,4.7,3.4,7.9,3.4c2.4,0,4.6-0.6,6.5-1.9c1.9-1.3,3.4-3.2,4.3-5.7
		c1-2.5,1.5-5.2,1.5-8c0-2.4-0.4-4.5-1.1-6.4c-0.8-1.9-2-3.4-3.8-4.6C1854.4,578.5,1852.3,577.9,1850,577.9z"/>
	<path class="st2" d="M1956.6,621c-4.4-0.1-8-0.1-10.9-0.1c-3.6,0-7.2,0-10.8,0.1l-0.1-7.8c-1.4,1.7-2.5,3-3.5,3.9s-2,1.6-3.1,2.3
		s-2.4,1.2-3.8,1.7s-3,0.8-4.8,1.1s-3.7,0.4-5.5,0.4c-3,0-5.9-0.4-8.6-1.1c-2.7-0.7-5.1-1.9-7.1-3.6c-2-1.7-3.4-3.6-4.2-5.7
		c-0.7-2.1-1.1-4.6-1.1-7.4c0-0.7,0.1-1.8,0.2-3.2l0.9-13c0.3-4.8,0.5-10.1,0.7-15.9c0.2-3.6,0.2-6.9,0.2-10.1
		c4.7,0.1,8.8,0.1,12.1,0.1c3.4,0,7.1,0,11.1-0.1l-1.8,21.8c-0.3,3.3-0.4,5.6-0.4,6.8s0,2,0,2.4c0,4,0.8,6.7,2.4,8.1
		c1.6,1.4,3.6,2.1,5.8,2.1c0.9,0,1.8-0.1,2.8-0.4c0.9-0.3,1.8-0.6,2.6-1.1c0.7-0.5,1.4-1,2-1.7c0.7-0.7,1.2-1.6,1.7-2.6
		c0.6-1.3,1.1-2.6,1.4-4.1c0.4-2,0.7-4.6,1-7.7c0.1-2.3,0.4-6.1,0.6-11.7l0.4-12c4.9,0.1,9,0.1,12.1,0.1c3.5,0,7.1,0,10.7-0.1
		c-0.9,9.7-1.6,18.9-2.1,27.7S1956.8,609.2,1956.6,621z"/>
	<path class="st2" d="M1969.4,621l1.8-25.4l0.6-14.6c0-2.6,0.1-5.3,0.1-8.1s0-6.2-0.1-10.4c4.6,0.1,8.3,0.1,11,0.1
		c3.2,0,6.8,0,10.9-0.1l-0.2,6.5c1.5-1.7,2.7-2.9,3.7-3.8c1-0.8,2-1.6,3.3-2.2c1.2-0.7,2.5-1.2,3.8-1.5s2.7-0.5,4.2-0.5
		c1.4,0,2.9,0.2,4.6,0.6c0,4.2,0.1,7.6,0.3,10.3l0.4,8.8c-2.1-0.6-4.1-0.9-5.9-0.9c-2.3,0-4.3,0.3-5.9,1c-1.7,0.7-3.1,1.7-4.4,3
		s-2.3,3-3.1,5.1c-0.8,2-1.3,5.2-1.6,9.6c-0.3,4.4-0.5,9.4-0.5,15.1c0,2,0.1,4.4,0.2,7.4c-3.7-0.1-7.4-0.1-11.2-0.1
		C1977.6,620.9,1973.7,620.9,1969.4,621z"/>
	<path class="st2" d="M2053.8,628.1c4.9,1.7,9.3,2.9,13,3.5c3.7,0.7,7,1,9.8,1c2,0,3.9-0.2,5.5-0.7c1.6-0.4,3-1,4-1.6
		c1-0.7,1.8-1.5,2.5-2.5s1.3-2.1,1.6-3.3c0.4-1.2,0.6-2.6,0.8-4.2c0.2-1.6,0.3-3.8,0.4-6.6c-1.5,1.3-2.8,2.4-3.9,3.2
		c-1.1,0.8-2.4,1.6-4,2.3s-3.4,1.3-5.2,1.7c-1.9,0.4-3.9,0.6-6,0.6c-4.9,0-9.2-1.1-13.1-3.4c-3.9-2.3-6.8-5.4-8.7-9.5
		c-1.9-4-2.9-8.4-2.9-13.1c0-5.5,1-10.5,3.1-15s5-8.3,8.8-11.3c3.8-3.1,8-5.2,12.6-6.4s9.8-1.8,15.6-1.8c3.3,0,7.1,0.2,11.3,0.6
		c4.2,0.4,10,1.3,17.4,2.6l-1.4,18.9l-1.2,20.7c-0.1,1.5-0.1,2.7-0.1,3.7l-0.5,18.6c-0.1,2.4-0.4,4.6-0.9,6.8
		c-0.4,1.9-1.1,3.8-2.1,5.4c-1,1.7-2.2,3.2-3.7,4.4c-1.6,1.4-3.4,2.5-5.4,3.3s-4.4,1.5-7.2,2.1c-3,0.5-6.1,0.8-9.3,0.8
		c-1.8,0-4.1-0.1-6.8-0.3s-5.4-0.4-8.2-0.8s-5.2-0.7-7.3-1.1s-4.6-0.9-7.8-1.7l-0.4-7.6C2054.3,636.1,2054.2,633,2053.8,628.1z
		 M2093.1,578.6c-2.4-0.5-4.5-0.7-6.3-0.7c-3.4,0-6.4,0.7-8.9,2s-4.4,3.3-5.8,5.9c-1.4,2.6-2.1,5.3-2.1,8.2c0,2.1,0.4,4,1.1,5.7
		c0.7,1.8,1.9,3.1,3.6,4.2c1.7,1,3.4,1.5,5.3,1.5c2.7,0,5.2-1,7.3-3s3.6-4.7,4.4-8.2C2092.5,590.8,2093,585.6,2093.1,578.6z"/>
	<path class="st2" d="M2160.6,561c4.7,0,9.3,0.7,13.7,2.2s8.1,3.5,11.1,6.3c3,2.7,5.2,5.9,6.7,9.6c1.4,3.6,2.1,7.6,2.1,11.8
		c0,4.1-0.6,8-1.9,11.7c-1.3,3.7-3.4,7.1-6.5,10.4c-3.1,3.2-6.9,5.6-11.7,7.2c-4.7,1.6-9.7,2.4-15,2.4c-4.9,0-9.5-0.7-14-2.1
		c-4.5-1.4-8.2-3.5-11.2-6.2s-5.3-6-6.8-9.7c-1.5-3.8-2.3-7.8-2.3-11.9c0-4.2,0.7-8.1,2.2-11.9c1.5-3.8,3.8-7.2,7-10.2
		s7.1-5.3,11.8-7C2150.7,561.9,2155.6,561,2160.6,561z M2160.2,577.9c-2.4,0-4.6,0.6-6.5,1.9c-1.9,1.3-3.4,3.1-4.3,5.5
		c-1,2.4-1.5,5.1-1.5,7.9c0,4.2,1,7.4,3.2,9.7c2.1,2.2,4.7,3.4,7.9,3.4c2.4,0,4.6-0.6,6.5-1.9c1.9-1.3,3.4-3.2,4.3-5.7
		c1-2.5,1.5-5.2,1.5-8c0-2.4-0.4-4.5-1.1-6.4c-0.8-1.9-2-3.4-3.8-4.6C2164.6,578.5,2162.6,577.9,2160.2,577.9z"/>
	<path class="st2" d="M2208.1,579.2c0.7-3.8,1.2-6.4,1.4-7.8c0.2-1.4,0.5-3.7,0.9-6.7c11-2.4,20.5-3.6,28.4-3.6
		c4.5,0,8.6,0.5,12.4,1.5s6.7,2.6,8.8,4.9c2.1,2.3,3.2,5.5,3.2,9.7c0,2.1-0.3,7-0.9,14.4c-0.6,7.5-1,17.3-1.3,29.4
		c-3.7-0.1-7.5-0.1-11.2-0.1c-3.6,0-7.4,0-11.5,0.1c0.5-4.2,1.1-12.9,1.7-26c-1.4,0.7-2.6,1.2-3.4,1.5c-0.8,0.3-2.3,0.8-4.3,1.4
		c-2.1,0.6-3.7,1.1-4.8,1.5c-1.2,0.4-2.2,1-3,1.6c-0.9,0.7-1.5,1.3-1.8,2c-0.4,0.7-0.5,1.5-0.5,2.3c0,1.3,0.5,2.4,1.5,3.3
		c1,0.9,2.7,1.4,4.9,1.4c0.8,0,1.7-0.1,2.6-0.2c0.9-0.1,2.2-0.5,3.8-1c-1.1,2.9-2.4,7.2-4,12.9c-3.3,0.5-6.4,0.8-9.3,0.8
		c-4.7,0-8.7-0.7-11.8-2c-3.2-1.3-5.6-3.4-7.3-6.4c-1.7-2.9-2.5-5.9-2.5-8.8c0-1.8,0.3-3.6,0.9-5.3c0.6-1.7,1.6-3.4,2.9-5
		c1.3-1.6,2.9-3,4.7-4.2s4.2-2.3,7.4-3.3c3.1-1,7.1-2,11.8-2.9c2-0.4,3.8-0.8,5.5-1.2s2.8-0.8,3.6-1.1c0.7-0.3,1.3-0.7,1.7-1.1
		c0.4-0.4,0.8-0.9,0.9-1.4c0.2-0.5,0.3-1,0.3-1.5c0-1.5-0.6-2.6-1.8-3.4c-1.2-0.8-3-1.2-5.4-1.2
		C2225.9,573.7,2217.7,575.5,2208.1,579.2z"/>
	<path class="st2" d="M2273.6,621l1-12.3l2.2-42.8l0.6-23c5.3,0.1,9.3,0.1,12,0.1c3.5,0,7.3,0,11.5-0.1l-1.3,17.6l-2.1,43.3
		l-0.5,17.3c-4.1,0-7.8-0.1-11.1-0.1H2273.6z"/>
	<path class="st2" d="M2309.6,619.9c-0.2-1.7-0.3-3.4-0.5-5.3c-0.2-1.9-0.4-4.4-0.7-7.6l-0.5-4.1c3.7,1.5,6.9,2.5,9.5,3.2
		c2.7,0.7,5.1,1.1,7.4,1.1c1.9,0,3.4-0.2,4.5-0.5c1.2-0.3,2-0.8,2.5-1.5c0.5-0.6,0.8-1.3,0.8-2c0-0.6-0.2-1.2-0.6-1.8
		c-0.4-0.6-1.3-1.4-2.7-2.4c-3.1-2.3-5.9-4.4-8.3-6.2c-2.4-1.9-4.2-3.5-5.4-5s-2.1-3-2.7-4.7c-0.6-1.7-0.9-3.4-0.9-5.2
		c0-3.2,0.9-6.1,2.7-8.9c1.8-2.8,4.5-4.7,8-6c3.5-1.2,7.8-1.9,12.9-1.9c5.3,0,12.1,0.7,20.3,2.1l0.9,16c-4.6-1.8-9.1-2.8-13.3-2.8
		c-3,0-5.2,0.3-6.6,0.9s-2,1.6-2,2.8c0,0.4,0.1,0.8,0.2,1.2c0.2,0.4,0.4,0.8,0.8,1.2s0.9,0.8,1.5,1.3c0.6,0.4,2,1.5,4.3,3.1
		s4.1,2.9,5.4,4c2.1,1.7,3.8,3.2,4.9,4.7c1.1,1.4,2,3,2.6,4.6s0.9,3.3,0.9,5.1c0,2.7-0.7,5.2-2,7.5s-3.3,4.2-6,5.7s-5.5,2.6-8.6,3.2
		c-3.1,0.6-6.3,0.9-9.6,0.9c-2.2,0-5-0.2-8.3-0.6C2317.9,621.6,2314,620.9,2309.6,619.9z"/>
</g>
<rect x="322" y="177.8" class="st3" width="19.5" height="120.7"/>
<rect x="327.5" y="393.9" class="st3" width="8.7" height="161.6"/>
<ellipse class="st3" cx="331.9" cy="362.3" rx="18.6" ry="23.2"/>
</svg>
