<?xml version="1.0" encoding="utf-8"?>
<!-- Generator: Adobe Illustrator 22.1.0, SVG Export Plug-In . SVG Version: 6.00 Build 0)  -->
<svg version="1.1" id="Layer_1" xmlns="http://www.w3.org/2000/svg" xmlns:xlink="http://www.w3.org/1999/xlink" x="0px" y="0px"
	 viewBox="0 0 643 643" style="enable-background:new 0 0 643 643;" xml:space="preserve">
<style type="text/css">
	.st0{fill:#FFFFFF;stroke:#000000;stroke-width:4;stroke-miterlimit:10;}
	.st1{stroke:#000000;stroke-miterlimit:10;}
</style>
<circle class="st0" cx="321.5" cy="321.5" r="319.5"/>
<path class="st1" d="M321.5,174c0,0,32,7,38-51c0,0,83,2,61,108h-22c0,0,5-49-14-48s-19,111-19,111h-44"/>
<path class="st1" d="M395.5,244c0,0,2,20-2,28c0,0,11-23,37,7C430.5,279,444.5,246,395.5,244z"/>
<path class="st1" d="M321.5,305h91c0,0,15-41,31,0h7v-49h18v49h9v-49h14v49h4v8h-4v47h-14v-47h-9v47h-18l-1-47h-6v13c0,0-27,7-35-12
	l-87-1"/>
<path class="st1" d="M321.5,335c0,0,26-8,29,46h-29"/>
<path class="st1" d="M321.5,391c0,0,24-14,78,19c0,0,12,0,17-69h26c0,0,10,96-34,139v30c0,0-33-97-77-18c0,0-2-3-3,59h-7"/>
<ellipse class="st1" cx="367" cy="550.7" rx="30.5" ry="67.7"/>
<polyline class="st1" points="336.5,551 336.5,618 397.5,618 397.5,551 "/>
<path class="st1" d="M321.5,174c0,0-32,7-38-51c0,0-83,2-61,108h22c0,0-5-49,14-48s19,111,19,111h44"/>
<path class="st1" d="M247.5,244c0,0-2,20,2,28c0,0-11-23-37,7C212.5,279,198.5,246,247.5,244z"/>
<path class="st1" d="M321.5,305h-91c0,0-15-41-31,0h-7v-49h-18v49h-9v-49h-14v49h-4v8h4v47h14v-47h9v47h18l1-47h6v13c0,0,27,7,35-12
	l87-1"/>
<path class="st1" d="M321.5,335c0,0-26-8-29,46h29"/>
<path class="st1" d="M321.5,391c0,0-24-14-78,19c0,0-12,0-17-69h-26c0,0-10,96,34,139v30c0,0,33-97,77-18c0,0,2-3,3,59h7"/>
<ellipse class="st1" cx="276" cy="550.7" rx="30.5" ry="67.7"/>
<polyline class="st1" points="306.5,551 306.5,618 245.5,618 245.5,551 "/>
<ellipse class="st1" cx="321.5" cy="123" rx="28.3" ry="42.4"/>
<rect x="311.7" y="173.3" class="st1" width="19.5" height="120.7"/>
<rect x="317.2" y="389.4" class="st1" width="8.7" height="161.6"/>
<ellipse class="st1" cx="321.6" cy="357.8" rx="18.6" ry="23.2"/>
</svg>
